<svg width="17" height="19" viewBox="0 0 17 19" fill="none" xmlns="http://www.w3.org/2000/svg">
<path d="M16.0083 19C14.0407 19 12.0968 18.5208 10.1764 17.5623C8.25602 16.6039 6.5088 15.2447 4.93472 13.4847C3.36065 11.7248 2.14483 9.77198 1.28728 7.62639C0.429722 5.4808 0.00062963 3.30811 0 1.10833C0 0.791667 0.0944444 0.527778 0.283333 0.316667C0.472222 0.105556 0.708333 0 0.991667 0H4.81667C5.03704 0 5.2338 0.0837407 5.40694 0.251222C5.58009 0.418704 5.68241 0.616444 5.71389 0.844444L6.32778 4.53889C6.35926 4.82037 6.35139 5.05787 6.30417 5.25139C6.25694 5.44491 6.17037 5.61204 6.04444 5.75278L3.75417 8.33889C4.06898 8.98981 4.44267 9.61857 4.87522 10.2252C5.30778 10.8318 5.78409 11.4169 6.30417 11.9806C6.79213 12.5259 7.3037 13.0319 7.83889 13.4984C8.37407 13.965 8.94074 14.3914 9.53889 14.7778L11.7583 12.2972C11.9 12.1389 12.0851 12.0203 12.3137 11.9415C12.5422 11.8627 12.7664 11.8405 12.9861 11.875L16.2444 12.6139C16.4648 12.6843 16.6458 12.812 16.7875 12.9971C16.9292 13.1821 17 13.3887 17 13.6167V17.8917C17 18.2083 16.9056 18.4722 16.7167 18.6833C16.5278 18.8944 16.2917 19 16.0083 19Z" fill="white"/>
</svg>
