<svg width="14" height="20" viewBox="0 0 14 20" fill="none" xmlns="http://www.w3.org/2000/svg">
<path d="M7 0.5C8.72391 0.5 10.3777 1.18433 11.5967 2.40332C12.8157 3.62231 13.5 5.27609 13.5 7C13.5 8.21133 13.0936 9.6058 12.4502 11.042C11.8097 12.4716 10.9515 13.9066 10.0859 15.1895C9.22135 16.4709 8.35488 17.591 7.70508 18.3916C7.42337 18.7387 7.18198 19.0246 7 19.2373C6.81802 19.0246 6.57663 18.7387 6.29492 18.3916C5.64512 17.591 4.77865 16.4709 3.91406 15.1895C3.04854 13.9066 2.19028 12.4716 1.5498 11.042C0.906389 9.6058 0.5 8.21133 0.5 7C0.5 5.27609 1.18433 3.62231 2.40332 2.40332C3.62231 1.18433 5.27609 0.5 7 0.5ZM7 4C6.20435 4 5.44152 4.3163 4.87891 4.87891C4.3163 5.44152 4 6.20435 4 7C4 7.79565 4.3163 8.55848 4.87891 9.12109C5.44152 9.6837 6.20435 10 7 10C7.39397 10 7.78446 9.92225 8.14844 9.77148C8.51226 9.62072 8.84262 9.39957 9.12109 9.12109C9.39957 8.84262 9.62072 8.51226 9.77148 8.14844C9.92225 7.78446 10 7.39397 10 7C10 6.20435 9.6837 5.44152 9.12109 4.87891C8.55848 4.3163 7.79565 4 7 4Z" fill="#841A83" stroke="white"/>
</svg>
